<?xml version="1.0" encoding="utf-8"?>
<!-- Generator: Adobe Illustrator 27.5.0, SVG Export Plug-In . SVG Version: 6.00 Build 0)  -->
<svg version="1.1" id="레이어_1" xmlns="http://www.w3.org/2000/svg" xmlns:xlink="http://www.w3.org/1999/xlink" x="0px"
	 y="0px" viewBox="0 0 200 200" style="enable-background:new 0 0 200 200;" xml:space="preserve">
<style type="text/css">
	.st0{fill:#3C7DEF;}
	.st1{fill:#FFFFFF;}
</style>
<g>
	<circle class="st0" cx="100" cy="100" r="96.9"/>
	<g>
		<path class="st1" d="M63.6,71c2.4,0.8,3.5-1,5-2.8c3.5-4.4,7.7-8.2,12-11.8c3-2.4,6.3-4.3,9.5-6.4c1.5-1,3.4-1.4,5-2.2
			c3.4-1.8,6.3-4,8.3-7.4c2.2-3.6,6.1-4,10.2-2.2c3.2,1.4,4.5,4.3,6.7,6.5c3.2,3.2,5.9,7,8.4,10.8c2,3,4.3,5.9,6.3,8.8
			c1.1,1.6,2.4,2.9,3.1,4.8c1.1,3.1,0.5,6-1.4,8.4c-1.6,2-4.1,2.6-6.5,2c-2.2-0.5-3.3,0.5-4.1,2c-1.1,2.1-2.9,3.5-4.4,5.2
			c-0.9,1.1-2,2-3,3c-0.7,0.7-0.6,1-0.1,1.7c1.6,2.1,3.6,3.9,5.5,5.7c1.1,1.1,1.8,2.4,2.8,3.6c2,2.5,4.3,4.7,6.6,6.8
			c2,1.9,3.7,4,5.5,6.1c1.2,1.3,2.3,2.8,3.6,4c3.2,3.1,6.6,6.1,9.6,9.6c1.8,2.1,3.6,4.2,5.1,6.5c1.1,1.7,1.3,3.9,1.1,6
			c-0.5,5.2-3.5,8.8-7.9,10.9c-4.9,2.4-10.3,1.6-14.7-3.1c-4.4-4.7-6.8-10.6-10.2-15.8c-2.1-3.3-4-6.7-6-10
			c-2.9-4.8-5.8-9.6-8.7-14.5c-1.4-2.3-2.8-4.5-4-7c-0.3-0.7-0.9-1.1-1.9-0.5c-3.1,1.9-6.5,3.1-9.8,4.4c-1.8,0.7-3.3,2-3.3,4.2
			c-0.1,2.6-3.1,5.4-5.8,5.7c-4.4,0.4-7.5-1.1-9.8-4.9c-1.4-2.2-3.3-4.1-4.8-6.2c-1.8-2.6-4.1-4.8-5.5-7.6c-0.4-0.8-1.3-1.2-1.8-2
			c-0.8-1.3-1.4-2.6-2.1-3.9c-0.7-1.3-1.9-2.3-2.9-3.3c-1.5-1.5-2.9-3.1-3.5-5.1c-1.5-4.5,1.6-10.6,6.8-10.1C62.7,71,63,71,63.6,71z
			"/>
		<path class="st1" d="M77.8,151.1c-9.8,0-19.6,0-29.4,0c-4,0-7.1-2.8-6.8-6.8c0.1-1.6,0-3.2,0.7-4.8c0.9-1.9,2.9-3.5,5.1-3.6
			c0.8,0,1.5,0,2.3,0c0.8,0,1.4-0.2,1.3-1.2c0-0.2,0-0.4,0.1-0.6c1.9-2.6,3.7-5.3,7-6.4c1.7-0.5,3.3-1.2,5.1-1.2
			c9.3,0,18.7-0.2,28,0.1c3.8,0.1,7.8,0.6,10.7,3.7c1,1.1,1.9,2.2,2.3,3.5c0.6,1.6,1.5,2.2,3.2,2.1c1.1-0.1,2.2,0,3.4,0.5
			c2.7,1.3,3.6,3.5,3.7,6.2c0,1.9,0.2,3.9-0.9,5.6c-1.4,2.3-3.8,2.8-6.2,2.8C97.6,151.1,87.7,151.1,77.8,151.1z"/>
	</g>
</g>
</svg>
